<!--?xml version="1.0" standalone="no"?-->
              <svg id="sw-js-blob-svg" viewBox="0 0 100 100" xmlns="http://www.w3.org/2000/svg" version="1.1">
                    <defs> 
                        <linearGradient id="sw-gradient" x1="0" x2="1" y1="1" y2="0">
                            <stop id="stop1" stop-color="rgba(244, 88, 28, 1)" offset="0%"></stop>
                            <stop id="stop2" stop-color="rgba(31, 58, 138, 1)" offset="100%"></stop>
                        </linearGradient>
                    </defs>
                <path fill="url(#sw-gradient)" d="M24.1,-30.1C30.7,-23.1,35.2,-15.1,35.9,-7C36.5,1.1,33.2,9.2,28.9,16.7C24.6,24.3,19.3,31.4,12.4,33.9C5.5,36.3,-3.1,34.2,-11.1,31C-19,27.9,-26.4,23.7,-30.5,17.3C-34.7,10.9,-35.6,2.2,-34.9,-6.9C-34.2,-16.1,-31.9,-25.7,-25.9,-32.8C-19.8,-39.9,-9.9,-44.4,-0.6,-43.7C8.7,-43,17.4,-37.1,24.1,-30.1Z" width="100%" height="100%" transform="translate(50 50)" stroke-width="0" style="transition: 0.3s;" stroke="url(#sw-gradient)"></path>
              </svg>