<svg width="16" height="15" viewBox="0 0 17 17" fill="none" xmlns="http://www.w3.org/2000/svg">
<path fill-rule="evenodd" clip-rule="evenodd" d="M8.5 1.54545C4.65911 1.54545 1.54545 4.65911 1.54545 8.5C1.54545 12.3409 4.65911 15.4545 8.5 15.4545C12.3409 15.4545 15.4545 12.3409 15.4545 8.5C15.4545 4.65911 12.3409 1.54545 8.5 1.54545ZM0 8.5C0 3.80558 3.80558 0 8.5 0C13.1944 0 17 3.80558 17 8.5C17 13.1944 13.1944 17 8.5 17C3.80558 17 0 13.1944 0 8.5Z" fill="#333333"></path>
<path fill-rule="evenodd" clip-rule="evenodd" d="M8.74998 3C9.16418 3 9.49996 3.33578 9.49996 3.74999V8.37885C9.49996 8.37888 9.49996 8.37881 9.49996 8.37885C9.50002 8.65524 9.57522 8.8858 9.66694 9.02334L10.874 10.8339C11.1037 11.1785 11.0106 11.6442 10.666 11.874C10.3213 12.1037 9.85568 12.0106 9.62592 11.6659L8.41901 9.85555C8.41899 9.85552 8.41903 9.85558 8.41901 9.85555C8.13569 9.43064 8.00007 8.89816 8 8.37906V3.74999C8 3.33578 8.33578 3 8.74998 3Z" fill="#333333"></path>
</svg>