<svg class="mb-1 mr-1" width="14" height="14" viewBox="0 0 14 16" fill="none" xmlns="http://www.w3.org/2000/svg">
<path d="M7.65723 15.9999C7.3428 15.9314 7.02407 15.883 6.72254 15.7621C5.25246 15.1716 4.36548 14.1043 4.08586 12.5404C4.0401 12.2838 4.0272 12.0241 4.02759 11.7637C4.02876 10.7907 4.02446 9.81725 4.03111 8.84424C4.03228 8.68194 3.98301 8.62953 3.81953 8.59707C2.51605 8.33622 1.4918 7.6487 0.760088 6.53763C0.236036 5.74138 0.00412385 4.85597 0.00138627 3.90759C-0.000960234 3.04877 0.000213016 2.19035 0.000995182 1.33153C0.00177735 0.854405 0.232125 0.625621 0.709638 0.624448C1.02172 0.624057 1.3342 0.621319 1.64628 0.626012C1.74914 0.627577 1.8035 0.604503 1.8297 0.491089C1.90909 0.1485 2.17112 -0.0341362 2.50315 0.00497209C2.79998 0.0401696 3.01155 0.298285 3.01351 0.635398C3.01586 1.02062 3.01586 1.40544 3.01351 1.79066C3.01155 2.14342 2.81406 2.38511 2.49728 2.4293C2.18285 2.47349 1.91926 2.29242 1.8297 1.95491C1.80232 1.85167 1.75266 1.82625 1.65567 1.82429C1.20397 1.81491 1.20397 1.81256 1.20397 2.25761C1.20397 2.83016 1.19263 3.4027 1.20631 3.97486C1.23721 5.24588 1.76713 6.25409 2.84456 6.94435C4.34789 7.9072 6.3647 7.5388 7.44918 6.12073C7.9349 5.48561 8.16564 4.76485 8.17581 3.97212C8.18402 3.31667 8.17464 2.66082 8.18011 2.00497C8.18128 1.87083 8.14374 1.80865 8.00412 1.82507C7.95289 1.83094 7.9001 1.82586 7.84808 1.82586C7.58019 1.82586 7.58019 1.82586 7.47773 2.0695C7.36509 2.33661 7.09446 2.47897 6.80311 2.42421C6.54069 2.37494 6.33928 2.13794 6.33615 1.85675C6.33107 1.43008 6.33068 1.00341 6.33615 0.576736C6.34006 0.276384 6.5665 0.0315658 6.85121 0.00418993C7.17542 -0.0270967 7.44605 0.15945 7.50706 0.473099C7.52974 0.589642 7.57784 0.627968 7.69321 0.626404C8.04167 0.620928 8.39051 0.622493 8.73936 0.62523C9.12692 0.628359 9.37644 0.869266 9.37839 1.25918C9.38308 2.18565 9.4042 3.11252 9.3737 4.03782C9.31503 5.81217 8.5141 7.16688 6.98535 8.07732C6.48868 8.37298 5.94429 8.54936 5.37135 8.62914C5.25481 8.64557 5.22939 8.69484 5.22978 8.80122C5.23291 9.85245 5.22235 10.9037 5.23447 11.9549C5.25129 13.4223 6.38308 14.6522 7.83478 14.8008C9.4132 14.9623 10.8731 13.7911 11.0112 12.2228C11.0573 11.696 11.0241 11.1618 11.0264 10.6311C11.0276 10.3499 11.0217 10.0691 11.0288 9.78792C11.0315 9.66903 10.985 9.61506 10.8755 9.574C9.96189 9.23102 9.39482 8.3413 9.46325 7.36907C9.52857 6.44338 10.22 5.64048 11.1402 5.42148C12.3858 5.12543 13.6385 5.99559 13.7894 7.26309C13.9099 8.27365 13.3549 9.20755 12.4058 9.56735C12.2599 9.62249 12.2239 9.69758 12.2251 9.8415C12.2306 10.5752 12.2329 11.3092 12.2247 12.0429C12.2059 13.7899 10.9236 15.4203 9.23291 15.8638C9.02133 15.9193 8.80584 15.9502 8.59388 16.0003C8.28179 15.9999 7.96971 15.9999 7.65723 15.9999ZM11.6287 8.50321C12.1707 8.50556 12.6068 8.07771 12.6095 7.54076C12.6119 7.01279 12.1801 6.57908 11.6478 6.574C11.1042 6.56891 10.6678 6.99285 10.6643 7.52902C10.6604 8.07028 11.0866 8.50087 11.6287 8.50321Z" fill="white"></path>
</svg>