<svg class="mt-1 mr-2" width="17" height="16" viewBox="0 0 17 16" fill="none" xmlns="http://www.w3.org/2000/svg">
<path d="M15.2667 5.9701C14.8164 5.74191 14.2755 5.78948 13.872 6.09276L12.65 7.0001C12.4767 5.29785 11.0444 4.00226 9.33334 4.0001H9.27669L6.52869 1.25276C6.15472 0.876164 5.64544 0.665101 5.11469 0.666758H0.666656C0.298469 0.666758 0 0.965258 0 1.33345C0 1.70163 0.298469 2.0001 0.666656 2.0001H5.11466C5.29138 2.00057 5.46075 2.07076 5.586 2.19545L7.39066 4.0001H3.33334C1.49331 4.00232 0.00221875 5.49341 0 7.33345V12.6668C0.00221875 14.5068 1.49331 15.9979 3.33334 16.0001H9.33334C11.0444 15.9979 12.4767 14.7024 12.65 13.0001L13.87 13.9094C14.4591 14.3513 15.2948 14.2319 15.7367 13.6428C15.9097 13.412 16.0033 13.1313 16.0033 12.8428V7.1621C16.0051 6.65682 15.7194 6.19454 15.2667 5.9701ZM11.3333 12.6668C11.3333 13.7713 10.4379 14.6668 9.33334 14.6668H3.33334C2.22878 14.6668 1.33334 13.7713 1.33334 12.6668V7.33345C1.33334 6.22888 2.22878 5.33345 3.33334 5.33345H9.33334C10.4379 5.33345 11.3333 6.22888 11.3333 7.33345V12.6668ZM14.6667 12.8381L12.6667 11.3474V8.65279L14.6667 7.16213V12.8381Z" fill="#FFFCFC"></path>
</svg>